#!OML:ASF F:\VICON\USERDATA\INSTALL\rory3\rory3.ASF
:FULLY-SPECIFIED
:DEGREES
299
root 0.965595 17.8086 23.083 -2.64383 1.73785 0.867665
lowerback 10.0603 -0.732058 -3.83863
upperback 0.00332647 -1.35228 1.24263
thorax -5.52804 -0.544492 3.66584
lowerneck -15.8817 -3.37967 -2.22056
upperneck 20.9149 -4.76447 2.63641
head 9.32915 -2.11009 0.671221
rclavicle -1.37286e-014 -2.18663e-015
rhumerus -36.3981 -24.9996 -74.0995
rradius 26.5755
rwrist 4.3557
rhand -18.0616 22.1287
rfingers 7.12502
rthumb 8.21088 -7.69171
lclavicle -1.37286e-014 -2.18663e-015
lhumerus -23.2181 -2.89528 80.1744
lradius 27.5937
lwrist 8.83455
lhand -28.6717 24.3536
lfingers 7.12502
lthumb -2.03464 54.3237
rfemur -27.4611 5.08092 18.2162
rtibia 18.4485
rfoot -7.12565 -14.8607
rtoes -2.61524
lfemur 10.9151 -3.24111 -26.1761
ltibia 16.3157
lfoot -17.3307 0.233725
ltoes -0.33638
300
root 0.948404 17.7889 23.2628 -2.57229 2.14259 1.01388
lowerback 10.02 -0.891374 -4.11178
upperback 0.0465474 -1.59327 1.25644
thorax -5.43052 -0.659088 3.86706
lowerneck -16.0504 -3.35647 -2.19075
upperneck 20.9192 -4.71661 2.55122
head 9.35745 -2.09296 0.64056
rclavicle 5.59082e-015 -4.57205e-015
rhumerus -36.6022 -25.1057 -73.9695
rradius 26.6292
rwrist 4.87051
rhand -18.0379 21.8915
rfingers 7.12502
rthumb 8.23375 -7.92809
lclavicle 5.59082e-015 -4.57205e-015
lhumerus -22.8656 -2.88491 80.0338
lradius 28.56
lwrist 9.92051
lhand -27.2785 26.4336
lfingers 7.12502
lthumb -0.689082 56.4122
rfemur -27.1044 6.18605 17.4513
rtibia 16.3295
rfoot -8.2935 -15.413
rtoes -3.27658
lfemur 11.9058 -3.09709 -26.1352
ltibia 15.4859
lfoot -17.4266 -0.141739
ltoes -2.40186
301
root 0.931695 17.7646 23.4357 -2.49548 2.49552 1.2086
lowerback 10.2161 -0.99536 -4.30242
upperback -0.0179108 -1.76885 1.15888
thorax -5.58975 -0.735936 3.90462
lowerneck -16.2607 -3.39437 -2.10432
upperneck 21.0678 -4.77664 2.47881
head 9.44565 -2.11838 0.589528
rclavicle 8.46077e-015 1.51076e-014
rhumerus -36.9838 -25.1318 -73.9959
rradius 26.8804
rwrist 4.91791
rhand -17.2737 21.7657
rfingers 7.12502
rthumb 8.9712 -8.02354
lclavicle 8.46077e-015 1.51076e-014
lhumerus -22.4628 -2.93008 79.8076
lradius 29.0167
lwrist 10.2822
lhand -26.5631 27.2479
lfingers 7.12502
lthumb 0.00191887 57.2276
rfemur -26.9166 7.02586 16.7817
rtibia 14.8059
rfoot -11.3944 -15.8082
rtoes 4.80125
lfemur 12.7871 -3.02612 -26.1737
ltibia 14.8143
lfoot -17.5609 -0.481349
ltoes -5.12685
302
root 0.911713 17.7301 23.6068 -2.40102 2.64084 1.39307
lowerback 10.4717 -0.983564 -4.57182
upperback -0.174364 -1.8016 1.13334
thorax -5.88933 -0.732709 4.04714
lowerneck -16.2754 -3.44787 -2.125
upperneck 21.1937 -4.83653 2.42274
head 9.49297 -2.1529 0.564902
rclavicle 2.2239e-014 -9.34288e-015
rhumerus -37.5447 -25.1535 -73.833
rradius 27.1796
rwrist 4.94226
rhand -16.5441 21.5147
rfingers 7.12502
rthumb 9.6752 -8.24311
lclavicle 2.2239e-014 -9.34288e-015
lhumerus -22.1379 -2.94722 79.7995
lradius 29.0312
lwrist 10.1144
lhand -27.3066 26.3008
lfingers 7.12502
lthumb -0.716204 56.2794
rfemur -26.8754 7.42413 16.4398
rtibia 13.8511
rfoot -11.6077 -15.8599
rtoes 5.05982
lfemur 13.4882 -3.06052 -26.2612
ltibia 14.51
lfoot -17.7153 -0.477348
ltoes -8.60482
303
root 0.890889 17.696 23.7791 -2.31209 2.65136 1.25899
lowerback 10.6206 -0.950648 -4.53176
upperback -0.310731 -1.75864 1.19271
thorax -6.12177 -0.70213 4.08912
lowerneck -16.1832 -3.453 -2.1089
upperneck 21.2471 -4.83944 2.37303
head 9.49279 -2.15914 0.545994
rclavicle -8.17502e-015 -1.15295e-014
rhumerus -38.0718 -25.5276 -73.3946
rradius 27.1209
rwrist 5.41377
rhand -16.9183 21.8445
rfingers 7.12502
rthumb 9.31419 -7.92977
lclavicle -8.17502e-015 -1.15295e-014
lhumerus -22.015 -3.03321 79.8396
lradius 29.2437
lwrist 9.93215
lhand -28.7979 23.2641
lfingers 7.12502
lthumb -2.1565 53.233
rfemur -26.9769 7.24384 16.7918
rtibia 13.5386
rfoot -12.3796 -15.512
rtoes 3.40158
lfemur 13.9777 -3.14206 -26.0262
ltibia 14.5582
lfoot -17.9089 -0.518138
ltoes -10.5856
304
root 0.865968 17.672 23.9486 -2.24358 2.6535 0.905749
lowerback 10.8072 -0.969386 -4.31156
upperback -0.435667 -1.75942 1.29729
thorax -6.36273 -0.698173 4.0846
lowerneck -16.0319 -3.36539 -1.99084
upperneck 21.184 -4.74102 2.34056
head 9.43618 -2.10984 0.531023
rclavicle 1.37658e-014 -6.55989e-015
rhumerus -38.5359 -26.0111 -72.9781
rradius 26.966
rwrist 6.03454
rhand -17.2951 22.5886
rfingers 7.12502
rthumb 8.95058 -7.20152
lclavicle 1.37658e-014 -6.55989e-015
lhumerus -22.0201 -3.30792 79.7841
lradius 29.6736
lwrist 9.97646
lhand -29.7974 21.4632
lfingers 7.12502
lthumb -3.12181 51.4201
rfemur -27.2784 6.58439 17.6618
rtibia 14.0358
rfoot -11.7992 -14.7347
rtoes -1.85385
lfemur 14.4128 -3.35187 -25.5431
ltibia 14.7082
lfoot -18.0976 -0.702468
ltoes -11.0676
305
root 0.84507 17.6477 24.1252 -2.19948 2.68695 0.783168
lowerback 10.8251 -0.979642 -4.27757
upperback -0.446788 -1.76691 1.33953
thorax -6.38358 -0.701421 4.11219
lowerneck -15.8947 -3.33493 -2.04353
upperneck 21.0491 -4.71337 2.47047
head 9.36786 -2.08939 0.590837
rclavicle -1.1368e-014 1.13307e-014
rhumerus -38.7934 -26.2143 -72.793
rradius 27.1864
rwrist 7.06531
rhand -18.0098 19.4282
rfingers 7.12502
rthumb 8.26084 -10.3903
lclavicle -1.1368e-014 1.13307e-014
lhumerus -21.7738 -3.5769 79.7382
lradius 30.013
lwrist 10.1924
lhand -29.9407 21.4988
lfingers 7.12502
lthumb -3.26019 51.4536
rfemur -27.5915 5.16613 18.5732
rtibia 14.9911
rfoot -11.0699 -13.1801
rtoes 2.11041
lfemur 14.9262 -3.60595 -25.3762
ltibia 15.1095
lfoot -18.3359 -0.572067
ltoes -12.4471
306
root 0.832481 17.6231 24.3037 -2.27134 2.84553 1.03508
lowerback 10.8944 -1.01509 -4.49816
upperback -0.351803 -1.85189 1.21505
thorax -6.31081 -0.741868 4.1185
lowerneck -16.067 -3.35602 -2.07345
upperneck 21.1551 -4.7779 2.64485
head 9.44416 -2.09917 0.64413
rclavicle -2.38728e-014 -7.15625e-015
rhumerus -38.999 -26.2878 -72.8331
rradius 27.4777
rwrist 7.7337
rhand -18.0974 18.7927
rfingers 7.12502
rthumb 8.17634 -11.0291
lclavicle -2.38728e-014 -7.15625e-015
lhumerus -21.5297 -3.65974 79.6261
lradius 30.4484
lwrist 10.2045
lhand -29.6943 20.3917
lfingers 7.12502
lthumb -3.02228 50.35
rfemur -27.796 3.31802 19.1393
rtibia 16.2625
rfoot -10.8013 -11.3283
rtoes 5.44939
lfemur 15.6269 -3.94778 -25.6819
ltibia 15.6549
lfoot -18.6258 -0.435164
ltoes -13.2622
307
root 0.819212 17.6032 24.4803 -2.35068 2.98864 1.14777
lowerback 11.055 -1.03914 -4.56929
upperback -0.270878 -1.90271 1.15472
thorax -6.31021 -0.766912 4.10652
lowerneck -16.1908 -3.37982 -2.08485
upperneck 21.0677 -4.8029 2.64632
head 9.43756 -2.11087 0.641661
rclavicle 3.65267e-015 9.34288e-015
rhumerus -39.1013 -26.105 -73.07
rradius 27.4259
rwrist 6.43117
rhand -15.8383 25.5874
rfingers 7.12502
rthumb 10.3561 -4.13758
lclavicle 3.65267e-015 9.34288e-015
lhumerus -21.4176 -3.58918 79.5707
lradius 30.9168
lwrist 9.96426
lhand -29.9538 18.4154
lfingers 7.12502
lthumb -3.27287 48.3701
rfemur -28.1667 1.96338 19.7035
rtibia 18.0733
rfoot -7.9688 -10.1221
rtoes 0.389196
lfemur 16.0435 -4.31873 -25.8397
ltibia 16.1786
lfoot -18.528 -0.830058
ltoes -12.3789
308
root 0.801872 17.5824 24.6622 -2.45112 3.0475 1.02416
lowerback 11.2692 -1.08275 -4.46393
upperback -0.255582 -1.95374 1.19369
thorax -6.41156 -0.791719 4.10368
lowerneck -16.1412 -3.36901 -2.08764
upperneck 20.8847 -4.76736 2.58884
head 9.36195 -2.10345 0.628579
rclavicle 1.49958e-014 1.05356e-014
rhumerus -39.1797 -25.736 -73.3103
rradius 27.388
rwrist 5.39308
rhand -14.9343 28.1153
rfingers 7.12502
rthumb 11.2281 -1.56425
lclavicle 1.49958e-014 1.05356e-014
lhumerus -21.3196 -3.37012 79.5592
lradius 31.0972
lwrist 9.79857
lhand -30.5318 17.2438
lfingers 7.12502
lthumb -3.831 47.1891
rfemur -28.4779 1.26417 20.3576
rtibia 19.9913
rfoot -7.04124 -9.60707
rtoes -1.97287
lfemur 16.1719 -4.69012 -25.7385
ltibia 16.5061
lfoot -17.8855 -1.72558
ltoes -9.39947
